<svg width="134" height="102" viewBox="0 0 134 102" fill="none" xmlns="http://www.w3.org/2000/svg">
<path d="M96.827 64.7326C96.827 81.3076 83.32 94.7444 66.6582 94.7444C49.9965 94.7444 36.4895 81.3076 36.4895 64.7326C36.4895 48.1575 49.9965 34.7208 66.6582 34.7208C83.32 34.7208 96.827 48.1575 96.827 64.7326Z" fill="#C4C4C4"/>
<path d="M59.9929 68.6314C58.1224 64.6053 59.8573 59.8377 63.8484 58.0026C67.8309 56.1715 72.5828 57.9567 74.4533 61.9828L113.896 83.9728L70.1644 72.8114C66.2725 74.3106 61.7946 72.5092 59.9929 68.6314Z" fill="#030104"/>
<path d="M20.0428 20.6684C32.4946 8.22633 49.0496 1.37427 66.6582 1.37427C84.2672 1.37427 100.823 8.22633 113.274 20.6684C125.726 33.1105 132.583 49.6529 132.583 67.2485C132.583 78.6098 129.718 89.5284 124.34 99.1905H112.018L103.006 93.9909L106.986 87.1023L118.574 93.7882C122.668 85.8233 124.981 76.801 124.981 67.2485C124.981 65.558 124.904 63.885 124.763 62.2304L110.945 64.6648L109.563 56.8315L123.543 54.3685C121.045 43.3473 115.412 33.5021 107.635 25.8201L98.1628 37.1L92.0648 31.9872L101.608 20.6223C92.8572 14.0559 82.2044 9.89135 70.6382 9.10906V24.195H62.6783V9.10906C51.1121 9.89197 40.4593 14.0562 31.7077 20.6226L41.2517 31.9872L35.154 37.1L25.6819 25.8198C17.9043 33.5021 12.272 43.3473 9.77393 54.3682L23.7534 56.8318L22.3708 64.6645L8.55456 62.2298C8.41286 63.8847 8.33601 65.5574 8.33601 67.2479C8.33601 76.801 10.6478 85.8236 14.7424 93.7879L26.3308 87.1026L30.3104 93.9909L21.2987 99.1899H8.97659C3.59811 89.5278 0.733978 78.6092 0.733978 67.2479C0.733673 49.6526 7.59155 33.1099 20.0428 20.6684Z" fill="#030104"/>
</svg>
